<svg width="18" height="19" viewBox="0 0 18 19" fill="none" xmlns="http://www.w3.org/2000/svg">
<path d="M17.4797 14.6808C16.5199 13.8457 15.4587 13.1352 14.3211 12.566C13.3746 12.1113 13.0294 12.1207 12.3577 12.6036C11.8 13.0066 11.4395 13.3813 10.7972 13.2415C9.60009 12.6982 8.53158 11.9074 7.66199 10.9211C6.67474 10.0524 5.88411 8.98291 5.34289 7.78408C5.20667 7.13671 5.57773 6.78071 5.98049 6.22263C6.4631 5.55176 6.47719 5.20516 6.01807 4.25818C5.45202 3.11828 4.74164 2.05605 3.90445 1.09768C3.21635 0.413882 3.06488 0.56427 2.68208 0.699385C2.29133 0.863408 1.91637 1.0628 1.56186 1.29506C0.98339 1.62591 0.515612 2.12053 0.217371 2.7167C-0.0491796 3.29358 -0.359176 4.36158 1.21547 7.17078C2.37719 9.31735 3.84864 11.2809 5.58243 12.9983C7.29975 14.732 9.26205 16.2042 11.4066 17.3678C14.2083 18.9434 15.2816 18.6332 15.8581 18.3665C16.4581 18.075 16.9565 17.6095 17.2883 17.0306C17.5205 16.6759 17.7197 16.3007 17.8837 15.9098C18.0187 15.5303 18.1737 15.3752 17.4797 14.6808Z" fill="white"/>
</svg>
