<svg width="41" height="40" viewBox="0 0 41 40" fill="none" xmlns="http://www.w3.org/2000/svg">
<g id="_x32_95_x2C__Beat_x2C__Heart_x2C__Pulse_x2C__Heart_Care_1_">
<g id="Group">
<path id="Vector" d="M5.95907 1.34082C6.48048 1.34082 6.92741 1.78774 6.92741 2.30915C6.92741 2.83057 6.48048 3.27751 5.95907 3.27751C5.43765 3.27751 4.99072 2.83057 4.99072 2.30915C5.06521 1.78774 5.43765 1.34082 5.95907 1.34082Z" fill="#FFDC67"/>
<path id="Vector_2" d="M38.1379 0.893799C39.1807 0.893799 40.0001 1.71317 40.0001 2.756C40.0001 3.79883 39.1807 4.61819 38.1379 4.61819C37.0951 4.61819 36.2757 3.79883 36.2757 2.756C36.2757 1.71317 37.0951 0.893799 38.1379 0.893799Z" fill="#FFDC67"/>
<path id="Vector_3" d="M4.61814 33.8918C6.18239 33.8918 7.44868 35.1581 7.44868 36.7224C7.44868 38.2866 6.18239 39.5529 4.61814 39.5529C3.05389 39.5529 1.7876 38.2866 1.7876 36.7224C1.7876 35.1581 3.05389 33.8918 4.61814 33.8918Z" fill="#FFDC67"/>
<path id="Vector_4" d="M28.827 24.1339H33.6687C30.2423 28.1563 25.1026 32.0297 19.9629 37.1693C14.8233 32.0297 9.68359 28.1563 6.25714 24.1339H14.4508L15.3447 21.3034L17.0579 25.3258L19.516 15.7168L21.9741 30.093L23.5383 22.8676L25.1771 25.7727L27.0393 20.931L28.827 24.1339Z" fill="#DB4040"/>
<path id="Vector_5" d="M28.9014 5.21411C33.8176 5.21411 37.8399 9.23646 37.8399 14.1527C37.8399 17.9515 36.2012 21.08 33.6686 24.134H28.8269L26.9647 20.931L25.1025 25.7728L23.4638 22.8677L21.8995 30.0931L19.4414 15.7169L16.9833 25.3258L15.2701 21.3035L14.3762 24.134H6.18255C3.64997 21.08 2.01123 18.026 2.01123 14.1527C2.01123 9.23646 6.03358 5.21411 10.9498 5.21411C15.4191 5.21411 17.6537 7.44875 19.8883 11.918C22.1975 7.44875 24.4321 5.21411 28.9014 5.21411Z" fill="#FF5856"/>
<path id="Vector_6" d="M38.3613 30.2419C38.7338 30.2419 39.0317 30.5399 39.0317 30.9124C39.0317 31.2848 38.7338 31.5827 38.3613 31.5827C37.9889 31.5827 37.6909 31.2848 37.6909 30.9124C37.6909 30.5399 37.9889 30.2419 38.3613 30.2419Z" fill="black"/>
<path id="Vector_7" d="M31.3594 0C31.7318 0 32.0297 0.297947 32.0297 0.670387C32.0297 1.04283 31.7318 1.34077 31.3594 1.34077C30.9869 1.34077 30.689 1.04283 30.689 0.670387C30.689 0.297947 30.9869 0 31.3594 0Z" fill="black"/>
<path id="Vector_8" d="M28.6033 36.7224C28.9758 36.7224 29.2737 37.0204 29.2737 37.3928C29.2737 37.7652 28.9758 38.0632 28.6033 38.0632C28.2309 38.0632 27.9329 37.7652 27.9329 37.3928C27.9329 37.0204 28.2309 36.7224 28.6033 36.7224Z" fill="black"/>
<path id="Vector_9" d="M20.633 3.72437C21.0054 3.72437 21.3034 4.02231 21.3034 4.39475C21.3034 4.76719 21.0054 5.06514 20.633 5.06514C20.2605 5.06514 19.9626 4.76719 19.9626 4.39475C19.9626 4.02231 20.2605 3.72437 20.633 3.72437Z" fill="black"/>
<path id="Vector_10" d="M4.84178 28.8267C5.21422 28.8267 5.51217 29.1246 5.51217 29.497C5.51217 29.8695 5.21422 30.1675 4.84178 30.1675C4.46934 30.1675 4.17139 29.8695 4.17139 29.497C4.17139 29.1246 4.46934 28.8267 4.84178 28.8267Z" fill="black"/>
<path id="Vector_11" d="M0.670391 3.72437C1.04283 3.72437 1.34078 4.02231 1.34078 4.39475C1.34078 4.76719 1.04283 5.06514 0.670391 5.06514C0.297951 5.06514 0 4.76719 0 4.39475C0 4.02231 0.297951 3.72437 0.670391 3.72437Z" fill="black"/>
<path id="Vector_12" d="M19.9627 37.6907C19.8137 37.6907 19.7392 37.6162 19.6647 37.5417C17.5046 35.3816 15.3444 33.4449 13.2588 31.5827C10.5027 29.1246 7.97014 26.8155 5.95897 24.5064C2.97945 21.0054 1.63867 17.8024 1.63867 14.227C1.63867 9.01286 5.88448 4.84155 11.0241 4.84155C15.6424 4.84155 17.9515 7.15067 19.9627 11.024C21.9739 7.22516 24.3575 4.84155 28.9012 4.84155C34.1154 4.84155 38.3612 9.08735 38.3612 14.227C38.3612 17.8024 37.0204 21.0054 34.0409 24.5064C32.0297 26.8155 29.4972 29.1246 26.7411 31.5827C24.6554 33.4449 22.4953 35.3816 20.2607 37.5417C20.1862 37.6162 20.0372 37.6907 19.9627 37.6907ZM11.0241 5.73539C6.33141 5.73539 2.53253 9.53427 2.53253 14.227C2.53253 17.579 3.79882 20.5585 6.62936 23.9104C8.56605 26.2196 11.0986 28.4542 13.8547 30.9123C15.8659 32.7 17.877 34.5622 19.9627 36.5734C22.0484 34.4877 24.134 32.6255 26.1452 30.8378C28.8268 28.4542 31.3594 26.1451 33.3705 23.836C36.2011 20.484 37.4674 17.5045 37.4674 14.1525C37.4674 9.4598 33.6685 5.6609 28.9757 5.6609C24.5065 5.6609 22.4953 8.04452 20.4096 12.1414C20.3351 12.2903 20.1862 12.3648 19.9627 12.3648C19.8137 12.3648 19.5903 12.2903 19.5158 12.1414C17.5046 8.04452 15.4189 5.73539 11.0241 5.73539Z" fill="black"/>
<path id="Vector_13" d="M21.8997 30.6145C21.6762 30.6145 21.4527 30.4655 21.4527 30.2421L19.3671 18.0261L17.4304 25.5493C17.3559 25.7728 17.2069 25.8473 16.9835 25.9218C16.76 25.9218 16.611 25.8473 16.5365 25.6238L15.2702 22.7188L14.7488 24.283C14.6743 24.5065 14.5253 24.581 14.3019 24.581H0.745085C0.521621 24.581 0.298157 24.3575 0.298157 24.1341C0.298157 23.9106 0.521621 23.6871 0.745085 23.6871H14.0784L14.8233 21.229C14.8978 21.0056 15.0468 20.9311 15.2702 20.9311C15.4937 20.9311 15.6427 21.0056 15.7172 21.229L16.909 23.9851L18.9946 15.7169C19.0691 15.4935 19.2181 15.3445 19.4416 15.3445C19.665 15.3445 19.814 15.4935 19.8885 15.7169L21.8997 27.7095L22.9425 22.7933C23.017 22.5698 23.166 22.4953 23.3149 22.4208C23.5384 22.4208 23.6874 22.4953 23.7619 22.6443L24.8792 24.6555L26.3689 20.7821C26.4434 20.6331 26.5924 20.4842 26.7414 20.4842C26.8903 20.4842 27.1138 20.5586 27.1883 20.7076L28.9015 23.6871H37.0207C37.2442 23.6871 37.4676 23.9106 37.4676 24.1341C37.4676 24.3575 37.2442 24.581 37.0207 24.581H28.827C28.6781 24.581 28.5291 24.5065 28.4546 24.3575L27.1138 21.9739L25.6241 25.8473C25.5496 25.9963 25.4006 26.1452 25.2516 26.1452C25.1026 26.1452 24.8792 26.0708 24.8047 25.9218L23.7619 24.1341L22.4956 30.1676C22.3466 30.4655 22.1231 30.6145 21.8997 30.6145Z" fill="black"/>
<path id="Vector_14" d="M38.1377 5.06504C36.8714 5.06504 35.8286 4.0222 35.8286 2.75591C35.8286 1.48961 36.8714 0.446777 38.1377 0.446777C39.404 0.446777 40.4469 1.48961 40.4469 2.75591C40.4469 4.0222 39.404 5.06504 38.1377 5.06504ZM38.1377 1.34064C37.3929 1.34064 36.7225 1.93654 36.7225 2.75591C36.7225 3.57527 37.3184 4.17117 38.1377 4.17117C38.9571 4.17117 39.553 3.57527 39.553 2.75591C39.553 1.93654 38.8826 1.34064 38.1377 1.34064Z" fill="black"/>
<path id="Vector_15" d="M4.61829 40C2.83058 40 1.34082 38.5102 1.34082 36.7225C1.34082 34.9348 2.83058 33.4451 4.61829 33.4451C6.406 33.4451 7.89576 34.9348 7.89576 36.7225C7.89576 38.5102 6.406 40 4.61829 40ZM4.61829 34.4134C3.35199 34.4134 2.30916 35.4562 2.30916 36.7225C2.30916 37.9888 3.35199 39.0317 4.61829 39.0317C5.88458 39.0317 6.92741 37.9888 6.92741 36.7225C6.92741 35.4562 5.88458 34.4134 4.61829 34.4134Z" fill="black"/>
<path id="Vector_16" d="M5.95891 3.64989C5.21403 3.64989 4.54364 3.05399 4.54364 2.23462C4.54364 1.41526 5.13954 0.819336 5.95891 0.819336C6.77828 0.819336 7.37418 1.41526 7.37418 2.23462C7.37418 3.05399 6.77828 3.64989 5.95891 3.64989ZM5.95891 1.78769C5.73545 1.78769 5.51198 2.01116 5.51198 2.23462C5.51198 2.45809 5.73545 2.68153 5.95891 2.68153C6.18237 2.68153 6.40584 2.45809 6.40584 2.23462C6.40584 2.01116 6.25686 1.78769 5.95891 1.78769Z" fill="black"/>
</g>
</g>
</svg>
