<svg width="41" height="40" viewBox="0 0 41 40" fill="none" xmlns="http://www.w3.org/2000/svg">
<g id="_x32_82_x2C__Health_x2C__Information_x2C__Insurance_x2C__Medical_x2C__Protect_1_">
<g id="Group">
<path id="Vector" d="M34.3653 36.0349C34.087 36.0349 8.97397 36.0349 8.27832 36.0349V4.73051V0.3479H29.1479V5.56529H34.3653C34.3653 5.63486 34.3653 36.0349 34.3653 36.0349Z" fill="#ECEBED"/>
<path id="Vector_2" d="M38.887 21.8435C39.0957 24.2783 38.0522 26.5739 36.1044 28.0348C31.0262 31.7217 32.2783 30.8174 32.0696 30.9565L28.0349 28.0348C26.087 26.6435 25.0435 24.2783 25.2522 21.8435L25.6001 18.0174C29.4957 17.9478 32.0696 14.8174 32.0696 14.8174C32.0696 14.8174 32.9044 15.8609 34.3653 16.7652C35.4783 17.4609 36.8696 18.0174 38.5392 18.0869L38.887 21.8435Z" fill="#FF5856"/>
<path id="Vector_3" d="M38.0523 33.4609C39.1654 33.4609 40.0001 34.3653 40.0001 35.4088C40.0001 36.4522 39.1654 37.3566 38.0523 37.3566C36.9393 37.3566 36.1045 36.4522 36.1045 35.4088C36.1045 34.3653 37.0088 33.4609 38.0523 33.4609Z" fill="#88C116"/>
<path id="Vector_4" d="M1.73904 26.0869C2.43469 26.0869 3.06077 26.6434 3.06077 27.4087C3.06077 28.1739 2.50425 28.7304 1.73904 28.7304C1.04338 28.7304 0.417297 28.1739 0.417297 27.4087C0.417297 26.6434 1.04338 26.0869 1.73904 26.0869Z" fill="#88C116"/>
<path id="Vector_5" d="M34.9215 22.1217V24.3478H33.1824V26.0869H31.0259V24.3478H29.2867V22.1217H31.0259V20.3826H33.1824V22.1217H34.9215Z" fill="#ECEBED"/>
<path id="Vector_6" d="M34.3652 5.63463H29.1478V0.417236C30.7478 2.01724 32.7652 4.03463 34.3652 5.63463Z" fill="#BCB7C6"/>
<path id="Vector_7" d="M29.1479 36.0348V39.5131H4.80011V4.73047H8.27837V36.0348H29.1479Z" fill="#BCB7C6"/>
<path id="Vector_8" d="M38.0522 12.5913C38.4001 12.5913 38.6783 12.8696 38.6783 13.2174C38.6783 13.5652 38.4001 13.8435 38.0522 13.8435C37.7044 13.8435 37.4261 13.5652 37.4261 13.2174C37.4261 12.8696 37.7044 12.5913 38.0522 12.5913Z" fill="black"/>
<path id="Vector_9" d="M35.4783 1.73926C35.8261 1.73926 36.1043 2.01752 36.1043 2.36535C36.1043 2.71317 35.8261 2.99143 35.4783 2.99143C35.1304 2.99143 34.8522 2.71317 34.8522 2.36535C34.8522 2.01752 35.1304 1.73926 35.4783 1.73926Z" fill="black"/>
<path id="Vector_10" d="M2.85216 2.08689C3.19794 2.08689 3.47825 1.80658 3.47825 1.4608C3.47825 1.11503 3.19794 0.834717 2.85216 0.834717C2.50638 0.834717 2.22607 1.11503 2.22607 1.4608C2.22607 1.80658 2.50638 2.08689 2.85216 2.08689Z" fill="black"/>
<path id="Vector_11" d="M2.85216 33.0435C3.19999 33.0435 3.47825 33.3217 3.47825 33.6695C3.47825 34.0174 3.19999 34.2956 2.85216 34.2956C2.50433 34.2956 2.22607 34.0174 2.22607 33.6695C2.22607 33.3217 2.50433 33.0435 2.85216 33.0435Z" fill="black"/>
<path id="Vector_12" d="M2.01738 17.3914C2.36521 17.3914 2.64347 17.6696 2.64347 18.0174C2.64347 18.3653 2.36521 18.6435 2.01738 18.6435C1.66956 18.6435 1.3913 18.3653 1.3913 18.0174C1.3913 17.6696 1.66956 17.3914 2.01738 17.3914Z" fill="black"/>
<path id="Vector_13" d="M33.1827 26.5045H31.0261C30.8175 26.5045 30.6088 26.2958 30.6088 26.0871V24.7653H29.287C29.0783 24.7653 28.8696 24.5567 28.8696 24.348V22.1914C28.8696 21.9827 29.0783 21.774 29.287 21.774H30.6088V20.4523C30.6088 20.2436 30.8175 20.0349 31.0261 20.0349H33.1827C33.3914 20.0349 33.6001 20.2436 33.6001 20.4523V21.774H34.9218C35.1305 21.774 35.3392 21.9827 35.3392 22.1914V24.348C35.3392 24.5567 35.1305 24.7653 34.9218 24.7653H33.6001V26.0871C33.6001 26.2958 33.3914 26.5045 33.1827 26.5045ZM31.4435 25.6001H32.7653V24.2784C32.7653 24.0697 32.974 23.861 33.1827 23.861H34.5044V22.5393H33.1827C32.974 22.5393 32.7653 22.3306 32.7653 22.1219V20.8001H31.4435V22.1219C31.4435 22.3306 31.2348 22.5393 31.0261 22.5393H29.7044V23.861H31.0261C31.2348 23.861 31.4435 24.0697 31.4435 24.2784V25.6001Z" fill="black"/>
<path id="Vector_14" d="M29.1477 40H4.7999C4.5912 40 4.38251 39.7913 4.38251 39.5826V4.79996C4.38251 4.59126 4.5912 4.38257 4.7999 4.38257H8.27816C8.48685 4.38257 8.69555 4.59126 8.69555 4.79996C8.69555 5.00866 8.48685 5.21735 8.27816 5.21735H5.21729V39.1652H28.7303V36.1043C28.7303 35.8956 28.939 35.6869 29.1477 35.6869C29.3564 35.6869 29.5651 35.8956 29.5651 36.1043V39.5826C29.5651 39.7913 29.426 40 29.1477 40Z" fill="black"/>
<path id="Vector_15" d="M34.3653 6.05217H29.1479C28.9392 6.05217 28.7305 5.84348 28.7305 5.63478V0.417392C28.7305 0.208696 28.9392 0 29.1479 0C29.3566 0 29.5653 0.208696 29.5653 0.417392V5.21739H34.3653C34.5739 5.21739 34.7826 5.42609 34.7826 5.63478C34.7826 5.84348 34.6435 6.05217 34.3653 6.05217Z" fill="black"/>
<path id="Vector_16" d="M1.73913 29.0784C0.765217 29.0784 0 28.3131 0 27.3392C0 26.3653 0.765217 25.6001 1.73913 25.6001C2.71304 25.6001 3.47826 26.3653 3.47826 27.3392C3.47826 28.3131 2.71304 29.0784 1.73913 29.0784ZM1.73913 26.5044C1.25217 26.5044 0.834783 26.9218 0.834783 27.4088C0.834783 27.8958 1.25217 28.3131 1.73913 28.3131C2.22609 28.3131 2.64348 27.8958 2.64348 27.4088C2.64348 26.9218 2.22609 26.5044 1.73913 26.5044Z" fill="black"/>
<path id="Vector_17" d="M34.3652 36.5217H8.27823C8.06953 36.5217 7.86084 36.313 7.86084 36.1043V0.417392C7.86084 0.208696 8.06953 0 8.27823 0H29.1478C29.2869 0 29.3565 0.0695657 29.4261 0.139131L34.6434 5.35652C34.713 5.42609 34.7826 5.56522 34.7826 5.63478V16.6957C34.7826 16.9043 34.5739 17.113 34.3652 17.113C34.1565 17.113 33.9478 16.9043 33.9478 16.6957V5.77391L29.0087 0.834783H8.69562V35.6174H33.9478V29.2174C33.9478 29.0087 34.1565 28.8 34.3652 28.8C34.5739 28.8 34.7826 29.0087 34.7826 29.2174V36.0348C34.7826 36.313 34.6434 36.5217 34.3652 36.5217Z" fill="black"/>
<path id="Vector_18" d="M32.0696 31.3042C32 31.3042 31.8609 31.3042 31.7913 31.2347L27.8261 28.3129C25.7392 26.7825 24.6261 24.2781 24.8348 21.7738L25.1827 17.9477C25.1827 17.739 25.3913 17.5303 25.6 17.5303C29.2174 17.4608 31.7218 14.4695 31.7218 14.4695C31.7913 14.3999 31.9305 14.3303 32.0696 14.3303C32.2087 14.3303 32.3479 14.3999 32.4174 14.4695C32.4174 14.4695 33.2522 15.4434 34.574 16.2781C35.8261 17.0434 37.1479 17.4608 38.5392 17.5303C38.7479 17.5303 38.9566 17.739 38.9566 17.9477L39.3044 21.7738C39.5131 24.3477 38.4 26.8521 36.3131 28.3129L32.2783 31.2347C32.2783 31.3042 32.2087 31.3042 32.0696 31.3042ZM26.0174 18.3651L25.6696 21.8434C25.4609 24.0695 26.4348 26.2955 28.3131 27.6173L32.0696 30.3303L35.8261 27.6173C37.6348 26.2955 38.6783 24.0695 38.4696 21.8434L38.1218 18.3651C36.7305 18.2955 35.4087 17.8086 34.087 17.0434C33.1131 16.4173 32.4174 15.7912 32 15.3738C31.3044 16.2086 29.0783 18.1564 26.0174 18.3651Z" fill="black"/>
<path id="Vector_19" d="M24.3477 8.20881H10.4347C10.226 8.20881 10.0173 8.00011 10.0173 7.79141C10.0173 7.58272 10.226 7.37402 10.4347 7.37402H24.3477C24.5564 7.37402 24.7651 7.58272 24.7651 7.79141C24.8347 8.00011 24.626 8.20881 24.3477 8.20881Z" fill="black"/>
<path id="Vector_20" d="M28.7303 10.4349H10.4347C10.226 10.4349 10.0173 10.2262 10.0173 10.0175C10.0173 9.80879 10.226 9.6001 10.4347 9.6001H28.7303C28.939 9.6001 29.1477 9.80879 29.1477 10.0175C29.1477 10.2262 28.939 10.4349 28.7303 10.4349Z" fill="black"/>
<path id="Vector_21" d="M28.7303 12.5914H10.4347C10.226 12.5914 10.0173 12.3827 10.0173 12.174C10.0173 11.9653 10.226 11.7566 10.4347 11.7566H28.7303C28.939 11.7566 29.1477 11.9653 29.1477 12.174C29.1477 12.3827 28.939 12.5914 28.7303 12.5914Z" fill="black"/>
<path id="Vector_22" d="M28.7303 14.7479H10.4347C10.226 14.7479 10.0173 14.5392 10.0173 14.3305C10.0173 14.1218 10.226 13.9131 10.4347 13.9131H28.7303C28.939 13.9131 29.1477 14.1218 29.1477 14.3305C29.1477 14.5392 28.939 14.7479 28.7303 14.7479Z" fill="black"/>
<path id="Vector_23" d="M24.3477 16.9044H10.4347C10.226 16.9044 10.0173 16.6957 10.0173 16.487C10.0173 16.2783 10.226 16.0696 10.4347 16.0696H24.3477C24.5564 16.0696 24.7651 16.2783 24.7651 16.487C24.8347 16.6957 24.626 16.9044 24.3477 16.9044Z" fill="black"/>
<path id="Vector_24" d="M23.0955 19.1304H10.4347C10.226 19.1304 10.0173 18.9217 10.0173 18.713C10.0173 18.5044 10.226 18.2957 10.4347 18.2957H23.026C23.2347 18.2957 23.4434 18.5044 23.4434 18.713C23.5129 18.9217 23.3042 19.1304 23.0955 19.1304Z" fill="black"/>
<path id="Vector_25" d="M23.0955 21.2869H10.4347C10.226 21.2869 10.0173 21.0782 10.0173 20.8695C10.0173 20.6608 10.226 20.4521 10.4347 20.4521H23.026C23.2347 20.4521 23.4434 20.6608 23.4434 20.8695C23.4434 21.0782 23.3042 21.2869 23.0955 21.2869Z" fill="black"/>
<path id="Vector_26" d="M23.0955 23.4434H10.4347C10.226 23.4434 10.0173 23.2347 10.0173 23.026C10.0173 22.8173 10.226 22.6086 10.4347 22.6086H23.026C23.2347 22.6086 23.4434 22.8173 23.4434 23.026C23.4434 23.2347 23.3042 23.4434 23.0955 23.4434Z" fill="black"/>
<path id="Vector_27" d="M23.0955 25.5999H10.4347C10.226 25.5999 10.0173 25.3912 10.0173 25.1825C10.0173 24.9738 10.226 24.7651 10.4347 24.7651H23.026C23.2347 24.7651 23.4434 24.9738 23.4434 25.1825C23.4434 25.3912 23.3042 25.5999 23.0955 25.5999Z" fill="black"/>
<path id="Vector_28" d="M38.0522 37.7739C36.7305 37.7739 35.687 36.7304 35.687 35.4087C35.687 34.0869 36.7305 33.0435 38.0522 33.0435C39.374 33.0435 40.4174 34.0869 40.4174 35.4087C40.487 36.7304 39.374 37.7739 38.0522 37.7739ZM38.0522 33.8782C37.2174 33.8782 36.5218 34.5739 36.5218 35.4087C36.5218 36.2435 37.2174 36.9391 38.0522 36.9391C38.887 36.9391 39.5827 36.2435 39.5827 35.4087C39.5827 34.5739 38.887 33.8782 38.0522 33.8782Z" fill="black"/>
</g>
</g>
</svg>
