<svg width="14" height="15" viewBox="0 0 14 15" fill="none" xmlns="http://www.w3.org/2000/svg">
<path d="M1.6875 3.95898C2.61948 3.95898 3.375 3.20346 3.375 2.27148C3.375 1.3395 2.61948 0.583984 1.6875 0.583984C0.75552 0.583984 0 1.3395 0 2.27148C0 3.20346 0.75552 3.95898 1.6875 3.95898Z" fill="white"/>
<path d="M3.09375 5.08398H0.28125C0.126 5.08398 0 5.20998 0 5.36523V13.8027C0 13.958 0.126 14.084 0.28125 14.084H3.09375C3.249 14.084 3.375 13.958 3.375 13.8027V5.36523C3.375 5.20998 3.249 5.08398 3.09375 5.08398Z" fill="white"/>
<path d="M11.4733 4.69646C10.2712 4.28471 8.76769 4.64639 7.866 5.29496C7.83506 5.17402 7.72481 5.08402 7.59375 5.08402H4.78125C4.626 5.08402 4.5 5.21002 4.5 5.36527V13.8028C4.5 13.958 4.626 14.084 4.78125 14.084H7.59375C7.749 14.084 7.875 13.958 7.875 13.8028V7.73902C8.3295 7.34752 8.91506 7.22264 9.39431 7.42627C9.85894 7.62258 10.125 8.10183 10.125 8.74027V13.8028C10.125 13.958 10.251 14.084 10.4062 14.084H13.2188C13.374 14.084 13.5 13.958 13.5 13.8028V8.17383C13.4679 5.86252 12.3806 5.00696 11.4733 4.69646Z" fill="white"/>
</svg>
