<svg width="13" height="14" viewBox="0 0 13 14" fill="none" xmlns="http://www.w3.org/2000/svg">
<path d="M9.86777 4.52625C10.2986 4.52625 10.6478 4.17703 10.6478 3.74625C10.6478 3.31547 10.2986 2.96625 9.86777 2.96625C9.43699 2.96625 9.08777 3.31547 9.08777 3.74625C9.08777 4.17703 9.43699 4.52625 9.86777 4.52625Z" fill="white"/>
<path fill-rule="evenodd" clip-rule="evenodd" d="M3.25 7.08398C3.25 8.87636 4.70763 10.334 6.5 10.334C8.29238 10.334 9.75 8.87636 9.75 7.08398C9.75 5.29161 8.29238 3.83398 6.5 3.83398C4.70763 3.83398 3.25 5.29161 3.25 7.08398ZM4.875 7.08398C4.875 6.1878 5.60381 5.45898 6.5 5.45898C7.39619 5.45898 8.125 6.1878 8.125 7.08398C8.125 7.98017 7.39619 8.70898 6.5 8.70898C5.60381 8.70898 4.875 7.98017 4.875 7.08398Z" fill="white"/>
<path fill-rule="evenodd" clip-rule="evenodd" d="M3.25 13.584H9.75C11.4205 13.584 13 12.0045 13 10.334V3.83398C13 2.16348 11.4205 0.583984 9.75 0.583984H3.25C1.5795 0.583984 0 2.16348 0 3.83398V10.334C0 12.0045 1.5795 13.584 3.25 13.584ZM1.625 3.83398C1.625 3.0743 2.49031 2.20898 3.25 2.20898H9.75C10.5097 2.20898 11.375 3.0743 11.375 3.83398V10.334C11.375 11.0937 10.5097 11.959 9.75 11.959H3.25C2.47569 11.959 1.625 11.1083 1.625 10.334V3.83398Z" fill="white"/>
</svg>
