<svg width="16" height="22" viewBox="0 0 16 22" fill="none" xmlns="http://www.w3.org/2000/svg">
<path d="M1.27167 12.7287L1.31167 12.7877C1.36167 12.8599 1.41167 12.9288 1.46167 13.001L7.25167 21.2025C7.33486 21.3202 7.44576 21.4164 7.5749 21.4829C7.70405 21.5493 7.84761 21.584 7.99333 21.584C8.13906 21.584 8.28262 21.5493 8.41176 21.4829C8.54091 21.4164 8.65181 21.3202 8.735 21.2025L14.5183 13.0141C14.5717 12.9387 14.6283 12.8632 14.6817 12.7845L14.7183 12.732C15.4993 11.5431 15.9401 10.169 15.9943 8.75436C16.0486 7.33971 15.7143 5.93682 15.0266 4.69341C14.3389 3.45 13.3234 2.41206 12.0868 1.68886C10.8502 0.965673 9.43842 0.583984 8 0.583984C6.56158 0.583984 5.14977 0.965673 3.9132 1.68886C2.67663 2.41206 1.66106 3.45 0.973403 4.69341C0.285745 5.93682 -0.0485568 7.33971 0.00569278 8.75436C0.0599424 10.169 0.500737 11.5431 1.28167 12.732L1.27167 12.7287ZM7.995 5.18332C8.65427 5.18332 9.29874 5.37572 9.8469 5.7362C10.3951 6.09668 10.8223 6.60904 11.0746 7.20849C11.3269 7.80794 11.3929 8.46756 11.2643 9.10393C11.1357 9.7403 10.8182 10.3249 10.352 10.7837C9.88585 11.2425 9.29191 11.5549 8.6453 11.6815C7.9987 11.8081 7.32848 11.7431 6.71939 11.4948C6.1103 11.2465 5.58971 10.826 5.22343 10.2865C4.85716 9.74703 4.66167 9.11276 4.66167 8.46392C4.66167 7.59385 5.01286 6.75942 5.63798 6.14419C6.2631 5.52895 7.11095 5.18332 7.995 5.18332Z" fill="white"/>
</svg>
