<svg width="22" height="16" viewBox="0 0 22 16" fill="none" xmlns="http://www.w3.org/2000/svg">
<path d="M1.69263 0.583984C1.37389 0.584781 1.06196 0.678439 0.793379 0.853948L10.2066 9.48782C10.3084 9.59535 10.4303 9.68086 10.5651 9.73925C10.6998 9.79764 10.8447 9.82772 10.9911 9.82772C11.1374 9.82772 11.2823 9.79764 11.417 9.73925C11.5518 9.68086 11.6737 9.59535 11.7755 9.48782L21.2066 0.853948C20.938 0.678439 20.6261 0.584781 20.3074 0.583984H1.69263ZM0.0976301 1.75514C0.0347534 1.93575 0.00175952 2.12577 5.05149e-06 2.31747V13.8532C-0.000539014 14.0807 0.0428706 14.306 0.12774 14.5162C0.21261 14.7265 0.337266 14.9175 0.494549 15.0783C0.651832 15.2391 0.838643 15.3666 1.04425 15.4534C1.24985 15.5402 1.4702 15.5845 1.69263 15.584H20.3074C20.5298 15.5845 20.7501 15.5402 20.9558 15.4534C21.1614 15.3666 21.3482 15.2391 21.5054 15.0783C21.6627 14.9175 21.7874 14.7265 21.8723 14.5162C21.9571 14.306 22.0005 14.0807 22 13.8532V2.31747C21.9982 2.12577 21.9652 1.93575 21.9024 1.75514L12.5249 10.3384C12.1042 10.7266 11.5577 10.9415 10.9911 10.9415C10.4244 10.9415 9.87792 10.7266 9.45725 10.3384L0.0976301 1.75514Z" fill="white"/>
</svg>
