<svg width="43" height="40" viewBox="0 0 43 40" fill="none" xmlns="http://www.w3.org/2000/svg">
<g id="_x32_77_x2C__Medical_x2C__Protect_x2C__Shield_1_">
<g id="Group">
<path id="Vector" d="M30.0357 11.5412C30.3225 14.6954 28.8888 17.8495 26.3081 19.785L20.9318 23.6559L15.5554 19.785C12.9748 17.9212 11.5411 14.767 11.8278 11.5412L12.4013 5.73478H14.2651C17.2042 5.6631 19.3547 3.22582 19.3547 3.15413L21.0035 1.14697L22.5805 3.15413C22.6522 3.2975 24.8028 5.6631 27.6701 5.73478H29.5339L30.0357 11.5412Z" fill="#FF5856"/>
<path id="Vector_2" d="M27.9571 11.7563C28.1722 14.2652 27.0969 16.6308 25.0897 18.1362L20.932 21.1469L16.846 18.1362C14.8388 16.7025 13.7635 14.2652 13.9786 11.7563L14.337 7.81361C18.3514 7.74192 21.0037 4.51611 21.0037 4.51611C21.0037 4.51611 23.656 7.74192 27.6704 7.81361L27.9571 11.7563Z" fill="#232B3F"/>
<path id="Vector_3" d="M23.8709 12.1146V14.3369H22.0788V16.129H19.8566V14.3369H18.0645V12.1146H19.8566V10.3225H22.0788V12.1146H23.8709Z" fill="#7DA8FF"/>
<path id="Vector_4" d="M35.8424 1.36206C36.846 1.36206 37.6345 2.15059 37.6345 3.15418C37.6345 4.15776 36.846 4.94629 35.8424 4.94629C34.8388 4.94629 34.0503 4.15776 34.0503 3.15418C34.0503 2.15059 34.9105 1.36206 35.8424 1.36206Z" fill="#FFDC67"/>
<path id="Vector_5" d="M7.16834 2.65234C8.67372 2.65234 9.89235 3.871 9.89235 5.37637C9.89235 6.88175 8.67372 8.10038 7.16834 8.10038C5.66297 8.10038 4.44434 6.88175 4.44434 5.37637C4.44434 3.871 5.66297 2.65234 7.16834 2.65234Z" fill="#FFDC67"/>
<path id="Vector_6" d="M37.2762 22.5089V12.258C37.2762 11.0394 38.2797 9.96411 39.5701 9.96411C40.7887 9.96411 41.864 10.9677 41.864 12.258V27.1684L31.4697 36.7025V39.4982H22.5091V31.0394L34.0503 21.7204C35.1256 20.8602 36.7027 21.2186 37.2762 22.5089Z" fill="#EAB883"/>
<path id="Vector_7" d="M5.01774 22.5089C5.59121 21.2186 7.23996 20.8602 8.24354 21.7204L19.7848 30.9677V39.4982H10.8242V36.7025L0.501617 27.0967V12.258C0.501617 11.0394 1.50519 9.96411 2.79551 9.96411C3.44067 9.96411 4.01416 10.2508 4.37258 10.6093C4.80269 11.0394 5.01774 11.6129 5.01774 12.1863V22.5089Z" fill="#EAB883"/>
<path id="Vector_8" d="M39.6417 5.87817C40.0002 5.87817 40.2869 6.16493 40.2869 6.52335C40.2869 6.88178 40.0002 7.16851 39.6417 7.16851C39.2833 7.16851 38.9966 6.88178 38.9966 6.52335C38.9966 6.16493 39.2833 5.87817 39.6417 5.87817Z" fill="black"/>
<path id="Vector_9" d="M33.8351 13.4768C34.1935 13.4768 34.4803 13.7635 34.4803 14.122C34.4803 14.4804 34.1935 14.7671 33.8351 14.7671C33.4767 14.7671 33.1899 14.4804 33.1899 14.122C33.1899 13.7635 33.4767 13.4768 33.8351 13.4768Z" fill="black"/>
<path id="Vector_10" d="M27.5986 0.501709C27.957 0.501709 28.2438 0.788465 28.2438 1.14689C28.2438 1.50531 27.957 1.79204 27.5986 1.79204C27.2402 1.79204 26.9535 1.50531 26.9535 1.14689C26.9535 0.788465 27.2402 0.501709 27.5986 0.501709Z" fill="black"/>
<path id="Vector_11" d="M15.0538 23.2976C15.4123 23.2976 15.699 23.5843 15.699 23.9428C15.699 24.3012 15.4123 24.5879 15.0538 24.5879C14.6954 24.5879 14.4087 24.3012 14.4087 23.9428C14.4087 23.5843 14.6954 23.2976 15.0538 23.2976Z" fill="black"/>
<path id="Vector_12" d="M13.6917 0C14.0501 0 14.3369 0.286734 14.3369 0.645157C14.3369 1.00358 14.0501 1.29031 13.6917 1.29031C13.3333 1.29031 13.0465 1.00358 13.0465 0.645157C13.0465 0.286734 13.3333 0 13.6917 0Z" fill="black"/>
<path id="Vector_13" d="M8.31557 12.5447C8.67399 12.5447 8.96072 12.8314 8.96072 13.1898C8.96072 13.5483 8.67399 13.835 8.31557 13.835C7.95714 13.835 7.67041 13.5483 7.67041 13.1898C7.67041 12.8314 7.95714 12.5447 8.31557 12.5447Z" fill="black"/>
<path id="Vector_14" d="M16.2006 37.2042H11.1827C10.9677 37.2042 10.7526 36.9892 10.7526 36.7741C10.7526 36.5591 10.9677 36.344 11.1827 36.344H16.2006C16.4157 36.344 16.6307 36.5591 16.6307 36.7741C16.7024 36.9892 16.4874 37.2042 16.2006 37.2042Z" fill="black"/>
<path id="Vector_15" d="M19.785 39.9999H10.8244C10.6093 39.9999 10.3943 39.7848 10.3943 39.5698V36.9175L0.143378 27.4551C0.0716933 27.3834 0 27.24 0 27.0967V12.258C0 10.7526 1.21863 9.53394 2.72401 9.53394C3.44085 9.53394 4.15771 9.82068 4.6595 10.3225C5.16129 10.8243 5.44803 11.5411 5.44803 12.258V21.2902C5.87814 21.0035 6.37993 20.8601 6.88173 20.8601C7.4552 20.8601 8.02867 21.0752 8.53046 21.4336L20.0717 30.6809C20.1434 30.7526 20.2151 30.8959 20.2151 31.0393V39.5698C20.2868 39.7848 20.0717 39.9999 19.785 39.9999ZM11.3262 39.1397H19.4265V31.2544L7.957 22.0787C7.67026 21.8637 7.31183 21.7203 6.88173 21.7203C6.5233 21.7203 6.16488 21.8637 5.87815 22.0787C5.66309 22.2221 5.51971 22.4372 5.37634 22.7239C5.08961 23.3691 5.23298 24.0859 5.73477 24.5877L11.828 30.0357C12.043 30.1791 12.043 30.4658 11.828 30.6809C11.6846 30.8959 11.3979 30.8959 11.1828 30.6809L5.23297 25.2329C4.44444 24.516 4.22939 23.4407 4.58781 22.4372V12.258C4.58781 11.7562 4.37277 11.3261 4.08603 10.9676C3.72761 10.6092 3.29749 10.4658 2.7957 10.4658C1.79211 10.4658 1.00358 11.2544 1.00358 12.258V26.9533L11.2545 36.4157C11.3262 36.4873 11.3978 36.6307 11.3978 36.7741L11.3262 39.1397Z" fill="black"/>
<path id="Vector_16" d="M31.4695 39.9999H22.5089C22.2938 39.9999 22.0788 39.7848 22.0788 39.5698V31.0393C22.0788 30.8959 22.1505 30.7526 22.2221 30.6809L33.7634 21.4336C34.1935 21.0752 34.7669 20.8601 35.4121 20.8601C35.9139 20.8601 36.4157 21.0035 36.8458 21.2902V12.258C36.8458 11.5411 37.1325 10.8243 37.6343 10.3225C38.1361 9.82068 38.853 9.53394 39.5698 9.53394C41.0752 9.53394 42.2938 10.7526 42.2938 12.258V27.1684C42.2938 27.3117 42.2221 27.3834 42.1505 27.5268L31.8996 36.9175V39.5698C31.8996 39.7848 31.6845 39.9999 31.4695 39.9999ZM22.939 39.1397H31.0393V36.7741C31.0393 36.6307 31.111 36.559 31.1827 36.4157L41.4336 26.9533V12.258C41.4336 11.2544 40.6451 10.4658 39.6415 10.4658C39.1397 10.4658 38.7096 10.6809 38.3512 10.9676C37.9928 11.3261 37.8494 11.7562 37.8494 12.258V22.4372C38.2078 23.4407 37.9928 24.516 37.2042 25.2329L31.2544 30.6809C31.0394 30.8243 30.8243 30.8243 30.6093 30.6809C30.4659 30.4658 30.4659 30.2508 30.6093 30.0357L36.5591 24.5877C37.0609 24.0859 37.2042 23.3691 36.9892 22.7239C36.9175 22.5088 36.7024 22.2938 36.4874 22.0787C36.2006 21.8637 35.8422 21.7203 35.4838 21.7203C35.1254 21.7203 34.6953 21.8637 34.4085 22.0787L22.939 31.2544V39.1397Z" fill="black"/>
<path id="Vector_17" d="M31.4699 37.2042H26.4519C26.2369 37.2042 26.0218 36.9892 26.0218 36.7741C26.0218 36.5591 26.2369 36.344 26.4519 36.344H31.4699C31.6849 36.344 31.9 36.5591 31.9 36.7741C31.9 36.9892 31.6849 37.2042 31.4699 37.2042Z" fill="black"/>
<path id="Vector_18" d="M22.0787 16.5593H19.8565C19.6415 16.5593 19.4264 16.3442 19.4264 16.1291V14.7671H18.0644C17.8493 14.7671 17.6343 14.5521 17.6343 14.337V12.1148C17.6343 11.8998 17.8493 11.6847 18.0644 11.6847H19.4264V10.3227C19.4264 10.1076 19.6415 9.89258 19.8565 9.89258H22.0787C22.2938 9.89258 22.5088 10.1076 22.5088 10.3227V11.6847H23.8708C24.0859 11.6847 24.3009 11.8998 24.3009 12.1148V14.337C24.3009 14.5521 24.0859 14.7671 23.8708 14.7671H22.5088V16.1291C22.5088 16.3442 22.3654 16.5593 22.0787 16.5593ZM20.2866 15.699H21.6486V14.337C21.6486 14.122 21.8637 13.9069 22.0787 13.9069H23.4407V12.5449H22.0787C21.8637 12.5449 21.6486 12.3299 21.6486 12.1148V10.7528H20.2866V12.1148C20.2866 12.3299 20.0716 12.5449 19.8565 12.5449H18.4945V13.9069H19.8565C20.0716 13.9069 20.2866 14.122 20.2866 14.337V15.699Z" fill="black"/>
<path id="Vector_19" d="M20.9321 24.086C20.8604 24.086 20.717 24.086 20.6453 24.0143L15.269 20.1433C12.5449 18.2078 11.0396 14.8387 11.398 11.5412L11.9715 5.73472C11.9715 5.51966 12.1865 5.30461 12.4016 5.30461H14.2654C16.9894 5.23292 18.9966 2.93902 18.9966 2.86733L20.6453 0.860153C20.717 0.788468 20.8603 0.716797 21.0037 0.716797C21.1471 0.716797 21.2905 0.788468 21.3621 0.860153L22.9392 2.86733C23.0826 3.0107 25.0181 5.23292 27.6704 5.30461L29.5342 5.3763C29.7493 5.3763 29.9643 5.59135 29.9643 5.80641L30.5378 11.6128C30.8245 14.982 29.3192 18.2795 26.6668 20.215L21.2905 24.086C21.1471 24.086 21.0754 24.086 20.9321 24.086ZM12.8317 6.2365L12.3299 11.6128C12.0432 14.6236 13.4052 17.6344 15.8424 19.4265L20.9321 23.0824L26.0216 19.4265C28.4589 17.6344 29.8209 14.6236 29.5342 11.6128L29.0324 6.2365H27.5987C24.5163 6.16481 22.294 3.58418 22.1507 3.51249L20.9321 1.93542L19.7134 3.4408C19.7134 3.4408 17.4912 6.09315 14.2654 6.16483L12.8317 6.2365Z" fill="black"/>
<path id="Vector_20" d="M20.9319 21.577C20.8602 21.577 20.7169 21.577 20.6452 21.5053L16.4875 18.4945C14.3369 16.9175 13.19 14.3368 13.405 11.7562L13.7635 7.81355C13.7635 7.59849 13.9785 7.38343 14.1936 7.38343C17.9212 7.31175 20.5018 4.22932 20.5018 4.22932C20.5735 4.15763 20.7169 4.08594 20.8602 4.08594C21.0036 4.08594 21.147 4.15763 21.2187 4.22932C21.2187 4.22932 23.7993 7.31175 27.5269 7.38343C27.7419 7.38343 27.957 7.59849 27.957 7.81355L28.3154 11.7562C28.5305 14.4085 27.3835 16.9892 25.233 18.4945L21.0753 21.5053C21.147 21.5053 21.0753 21.577 20.9319 21.577ZM14.6954 8.24366L14.3369 11.8279C14.1219 14.1218 15.1255 16.4157 17.0609 17.7777L20.9319 20.5734L24.8029 17.7777C26.6667 16.4157 27.7419 14.1218 27.5269 11.8279L27.1685 8.24366C24.0143 8.0286 21.7205 6.02142 20.9319 5.16121C20.1434 6.02142 17.8495 8.0286 14.6954 8.24366Z" fill="black"/>
<path id="Vector_21" d="M35.8423 5.37634C34.6237 5.37634 33.6201 4.37275 33.6201 3.15411C33.6201 1.93547 34.6237 0.931885 35.8423 0.931885C37.061 0.931885 38.0646 1.93547 38.0646 3.15411C38.0646 4.37275 37.1327 5.37634 35.8423 5.37634ZM35.8423 1.79211C35.1255 1.79211 34.4803 2.36558 34.4803 3.15411C34.4803 3.87096 35.0538 4.51611 35.8423 4.51611C36.6309 4.51611 37.2043 3.94264 37.2043 3.15411C37.2043 2.36558 36.6309 1.79211 35.8423 1.79211Z" fill="black"/>
<path id="Vector_22" d="M7.16843 8.5304C5.448 8.5304 4.01431 7.09672 4.01431 5.37629C4.01431 3.65586 5.448 2.22217 7.16843 2.22217C8.88886 2.22217 10.3225 3.65586 10.3225 5.37629C10.3225 7.09672 8.88886 8.5304 7.16843 8.5304ZM7.16843 3.15406C5.94979 3.15406 4.9462 4.15765 4.9462 5.37629C4.9462 6.59492 5.94979 7.59851 7.16843 7.59851C8.38707 7.59851 9.39066 6.59492 9.39066 5.37629C9.39066 4.15765 8.45875 3.15406 7.16843 3.15406Z" fill="black"/>
</g>
</g>
</svg>
