<svg width="42" height="40" viewBox="0 0 42 40" fill="none" xmlns="http://www.w3.org/2000/svg">
<g id="_x32_94_x2C__Ambulance_x2C__Car_x2C__Hospital_x2C__Transport_1_">
<g id="Group">
<path id="Vector" d="M39.9239 29.0493V32.3193C39.9239 34.2204 38.403 35.7413 36.5019 35.7413H6.23569C4.33455 35.7413 2.81364 34.2204 2.81364 32.3193V29.0493H39.9239Z" fill="#BCB7C6"/>
<path id="Vector_2" d="M30.8745 31.863C33.0038 31.863 34.6768 33.536 34.6768 35.6653C34.6768 37.7946 33.0038 39.4676 30.8745 39.4676C28.7453 39.4676 27.0723 37.7946 27.0723 35.6653C27.0723 33.6121 28.8213 31.863 30.8745 31.863Z" fill="#57606F"/>
<path id="Vector_3" d="M12.8518 31.863C14.981 31.863 16.654 33.536 16.654 35.6653C16.654 37.7946 14.981 39.4676 12.8518 39.4676C10.7225 39.4676 9.04948 37.7946 9.04948 35.6653C9.04948 33.6121 10.7225 31.863 12.8518 31.863Z" fill="#57606F"/>
<path id="Vector_4" d="M39.9241 16.2736V29.0493H2.88981V26.6158C2.88981 26.0075 3.0419 25.3991 3.34609 24.8668L9.50579 14.5246C10.1142 13.4599 11.2548 12.8516 12.3955 12.8516H36.578C38.4031 12.8516 39.9241 14.3725 39.9241 16.2736Z" fill="#ECEBED"/>
<path id="Vector_5" d="M37.5666 0.532227C38.8593 0.532227 39.924 1.59687 39.924 2.88965C39.924 4.18242 38.8593 5.24707 37.5666 5.24707C36.2738 5.24707 35.2092 4.18242 35.2092 2.88965C35.2092 1.59687 36.1978 0.532227 37.5666 0.532227Z" fill="#A4C7FF"/>
<path id="Vector_6" d="M3.8023 3.80225C5.6274 3.80225 7.14831 5.32315 7.14831 7.14825C7.14831 8.97335 5.6274 10.4943 3.8023 10.4943C1.97721 10.4943 0.456299 8.97335 0.456299 7.14825C0.456299 5.32315 1.97721 3.80225 3.8023 3.80225Z" fill="#A4C7FF"/>
<path id="Vector_7" d="M18.0988 16.6541V23.8023H8.06079L12.3954 16.6541H18.0988Z" fill="#BDF9FF"/>
<path id="Vector_8" d="M29.962 15.7415C32.8517 15.7415 35.2091 18.0989 35.2091 20.9886C35.2091 23.8783 32.8517 26.2358 29.962 26.2358C27.0723 26.2358 24.7148 23.8023 24.7148 20.9886C24.7148 18.1749 27.0723 15.7415 29.962 15.7415Z" fill="#232B3F"/>
<path id="Vector_9" d="M32.8518 19.9999V21.901H30.9506V23.8782H28.9734V21.901H26.9963V19.9999H28.9734V18.0227H30.9506V19.9999H32.8518Z" fill="#7DA8FF"/>
<path id="Vector_10" d="M30.8745 33.7642C31.9392 33.7642 32.7757 34.6007 32.7757 35.6653C32.7757 36.7299 31.9392 37.5664 30.8745 37.5664C29.8099 37.5664 28.9734 36.7299 28.9734 35.6653C28.9734 34.6007 29.8099 33.7642 30.8745 33.7642Z" fill="#414A56"/>
<path id="Vector_11" d="M12.8517 33.7642C13.9163 33.7642 14.7528 34.6007 14.7528 35.6653C14.7528 36.7299 13.9163 37.5664 12.8517 37.5664C11.787 37.5664 10.9505 36.7299 10.9505 35.6653C10.9505 34.6007 11.787 33.7642 12.8517 33.7642Z" fill="#414A56"/>
<path id="Vector_12" d="M41.1407 34.2966C41.5209 34.2966 41.8251 34.6008 41.8251 34.9811C41.8251 35.3613 41.5209 35.6655 41.1407 35.6655C40.7605 35.6655 40.4563 35.3613 40.4563 34.9811C40.4563 34.6008 40.7605 34.2966 41.1407 34.2966Z" fill="black"/>
<path id="Vector_13" d="M30.1901 1.52075C30.5704 1.52075 30.8745 1.82493 30.8745 2.20516C30.8745 2.58539 30.5704 2.88956 30.1901 2.88956C29.8099 2.88956 29.5057 2.58539 29.5057 2.20516C29.5057 1.82493 29.8099 1.52075 30.1901 1.52075Z" fill="black"/>
<path id="Vector_14" d="M23.4981 6.2356C23.8784 6.2356 24.1825 6.53977 24.1825 6.92C24.1825 7.30023 23.8784 7.60443 23.4981 7.60443C23.1179 7.60443 22.8137 7.30023 22.8137 6.92C22.8137 6.53977 23.1179 6.2356 23.4981 6.2356Z" fill="black"/>
<path id="Vector_15" d="M10.7223 1.97705C11.1026 1.97705 11.4067 2.28125 11.4067 2.66148C11.4067 3.04171 11.1026 3.34589 10.7223 3.34589C10.3421 3.34589 10.0379 3.04171 10.0379 2.66148C10.0379 2.28125 10.3421 1.97705 10.7223 1.97705Z" fill="black"/>
<path id="Vector_16" d="M2.12939 15.7415C2.50962 15.7415 2.81382 16.0456 2.81382 16.4259C2.81382 16.8061 2.50962 17.1103 2.12939 17.1103C1.74916 17.1103 1.44498 16.8061 1.44498 16.4259C1.44498 16.0456 1.74916 15.7415 2.12939 15.7415Z" fill="black"/>
<path id="Vector_17" d="M18.0988 24.2586H8.0608C7.90871 24.2586 7.75662 24.1825 7.68057 24.0304C7.60452 23.8784 7.60452 23.7263 7.68057 23.5742L11.9391 16.4259C12.0152 16.2738 12.1673 16.1978 12.3194 16.1978H18.0228C18.2509 16.1978 18.479 16.4259 18.479 16.654V23.8023C18.5551 24.0305 18.3269 24.2586 18.0988 24.2586ZM8.8973 23.346H17.5665V17.1863H12.6235L8.8973 23.346Z" fill="black"/>
<path id="Vector_18" d="M12.8518 38.0989C11.559 38.0989 10.4944 37.0342 10.4944 35.7415C10.4944 34.4487 11.559 33.384 12.8518 33.384C14.1446 33.384 15.2092 34.4487 15.2092 35.7415C15.2092 36.9582 14.1446 38.0989 12.8518 38.0989ZM12.8518 34.2966C12.0913 34.2966 11.4069 34.905 11.4069 35.7415C11.4069 36.578 12.0153 37.1863 12.8518 37.1863C13.6883 37.1863 14.2967 36.578 14.2967 35.7415C14.2967 34.905 13.6123 34.2966 12.8518 34.2966Z" fill="black"/>
<path id="Vector_19" d="M30.8745 38.0989C29.5817 38.0989 28.5171 37.0342 28.5171 35.7415C28.5171 34.4487 29.5817 33.384 30.8745 33.384C32.1673 33.384 33.2319 34.4487 33.2319 35.7415C33.308 36.9582 32.1673 38.0989 30.8745 38.0989ZM30.8745 34.2966C30.1141 34.2966 29.4296 34.905 29.4296 35.7415C29.4296 36.578 30.038 37.1863 30.8745 37.1863C31.711 37.1863 32.3194 36.578 32.3194 35.7415C32.3194 34.905 31.711 34.2966 30.8745 34.2966Z" fill="black"/>
<path id="Vector_20" d="M36.5019 36.1978H34.6768C34.4487 36.1978 34.2205 35.9697 34.2205 35.7415C34.2205 35.5134 34.4487 35.2853 34.6768 35.2853H36.5019C38.0989 35.2853 39.3916 33.9925 39.3916 32.3955V16.2738C39.3916 14.6769 38.0989 13.3841 36.5019 13.3841H12.3954C11.4068 13.3841 10.4183 13.9164 9.88594 14.829L3.72623 25.1712C3.42205 25.6274 3.34601 26.1598 3.34601 26.6921V32.3195C3.34601 33.9164 4.6388 35.2092 6.23575 35.2092H9.04943C9.27757 35.2092 9.50571 35.4373 9.50571 35.6655C9.50571 35.8936 9.27757 36.1218 9.04943 36.1218H6.23575C4.10648 36.1218 2.35742 34.3727 2.35742 32.2434V26.6161C2.35742 25.9316 2.5095 25.2472 2.88973 24.6389L9.04943 14.2966C9.73384 13.156 11.0266 12.3955 12.3954 12.3955H36.578C38.7072 12.3955 40.4563 14.1446 40.4563 16.2738V32.3195C40.3803 34.4488 38.6312 36.1978 36.5019 36.1978Z" fill="black"/>
<path id="Vector_21" d="M30.9505 24.3345H28.9733C28.7452 24.3345 28.5171 24.1063 28.5171 23.8782V22.3573H26.9962C26.768 22.3573 26.5399 22.1292 26.5399 21.901V19.9999C26.5399 19.7717 26.768 19.5436 26.9962 19.5436H28.5171V18.0227C28.5171 17.7945 28.7452 17.5664 28.9733 17.5664H30.9505C31.1787 17.5664 31.4068 17.7945 31.4068 18.0227V19.5436H32.9277C33.1558 19.5436 33.384 19.7717 33.384 19.9999V21.9771C33.384 22.2052 33.1558 22.4333 32.9277 22.4333H31.4068V23.9543C31.4068 24.1824 31.1787 24.3345 30.9505 24.3345ZM29.4296 23.4219H30.4182V21.901C30.4182 21.6729 30.6464 21.4447 30.8745 21.4447H32.3954V20.4562H30.8745C30.6464 20.4562 30.4182 20.228 30.4182 19.9999V18.479H29.4296V19.9999C29.4296 20.228 29.2015 20.4562 28.9733 20.4562H27.4524V21.4447H28.9733C29.2015 21.4447 29.4296 21.6729 29.4296 21.901V23.4219Z" fill="black"/>
<path id="Vector_22" d="M29.962 26.692C26.8441 26.692 24.2585 24.1065 24.2585 20.9886C24.2585 17.8707 26.8441 15.2852 29.962 15.2852C33.0798 15.2852 35.6654 17.8707 35.6654 20.9886C35.6654 24.1065 33.0798 26.692 29.962 26.692ZM29.962 16.1977C27.3764 16.1977 25.1711 18.327 25.1711 20.9886C25.1711 23.6502 27.3004 25.7795 29.962 25.7795C32.6236 25.7795 34.7529 23.6502 34.7529 20.9886C34.7529 18.327 32.5475 16.1977 29.962 16.1977Z" fill="black"/>
<path id="Vector_23" d="M27.0723 36.1977H16.654C16.4259 36.1977 16.1978 35.9696 16.1978 35.7414C16.1978 35.5133 16.4259 35.2852 16.654 35.2852H27.1483C27.3765 35.2852 27.6046 35.5133 27.6046 35.7414C27.6046 35.9696 27.3765 36.1977 27.0723 36.1977Z" fill="black"/>
<path id="Vector_24" d="M12.8517 40C10.4942 40 8.5931 38.0989 8.5931 35.7415C8.5931 33.3841 10.4942 31.4829 12.8517 31.4829C15.2091 31.4829 17.1102 33.3841 17.1102 35.7415C17.1102 38.0989 15.2091 40 12.8517 40ZM12.8517 32.3954C11.0266 32.3954 9.50566 33.9164 9.50566 35.7415C9.50566 37.5666 11.0266 39.0875 12.8517 39.0875C14.6768 39.0875 16.1977 37.5666 16.1977 35.7415C16.1977 33.9164 14.6768 32.3954 12.8517 32.3954Z" fill="black"/>
<path id="Vector_25" d="M30.8745 40.0001C28.5171 40.0001 26.616 38.099 26.616 35.7416C26.616 33.3842 28.5171 31.407 30.8745 31.407C33.2319 31.407 35.1331 33.3081 35.1331 35.6655C35.1331 38.023 33.2319 40.0001 30.8745 40.0001ZM30.8745 32.3956C29.0494 32.3956 27.5285 33.9165 27.5285 35.7416C27.5285 37.5667 29.0494 39.0876 30.8745 39.0876C32.6996 39.0876 34.2205 37.5667 34.2205 35.7416C34.2205 33.9165 32.6996 32.3956 30.8745 32.3956Z" fill="black"/>
<path id="Vector_26" d="M39.9239 29.5056H2.88961C2.66147 29.5056 2.43335 29.2774 2.43335 29.0493C2.43335 28.8212 2.66147 28.593 2.88961 28.593H39.9239C40.152 28.593 40.3801 28.8212 40.3801 29.0493C40.3801 29.2774 40.152 29.5056 39.9239 29.5056Z" fill="black"/>
<path id="Vector_27" d="M37.5665 5.77945C35.9695 5.77945 34.6768 4.48668 34.6768 2.88973C34.6768 1.29277 35.9695 0 37.5665 0C39.1634 0 40.4562 1.29277 40.4562 2.88973C40.4562 4.48668 39.0874 5.77945 37.5665 5.77945ZM37.5665 0.988584C36.5018 0.988584 35.6653 1.82509 35.6653 2.88973C35.6653 3.95437 36.5018 4.79087 37.5665 4.79087C38.6311 4.79087 39.4676 3.95437 39.4676 2.88973C39.4676 1.82509 38.6311 0.988584 37.5665 0.988584Z" fill="black"/>
<path id="Vector_28" d="M3.80228 10.9505C1.673 10.9505 0 9.27751 0 7.14823C0 5.01895 1.673 3.34595 3.80228 3.34595C5.93156 3.34595 7.60457 5.01895 7.60457 7.14823C7.60457 9.27751 5.93156 10.9505 3.80228 10.9505ZM3.80228 4.33453C2.20532 4.33453 0.912557 5.62732 0.912557 7.22428C0.912557 8.82124 2.20532 10.114 3.80228 10.114C5.39924 10.114 6.69201 8.82124 6.69201 7.22428C6.69201 5.62732 5.39924 4.33453 3.80228 4.33453Z" fill="black"/>
<path id="Vector_29" d="M36.5779 39.9999H6.15965C5.93151 39.9999 5.70337 39.7718 5.70337 39.5437C5.70337 39.3155 5.93151 39.0874 6.15965 39.0874H36.5779C36.806 39.0874 37.0342 39.3155 37.0342 39.5437C37.1102 39.7718 36.8821 39.9999 36.5779 39.9999Z" fill="black"/>
</g>
</g>
</svg>
