<svg width="16" height="12" viewBox="0 0 16 12" fill="none" xmlns="http://www.w3.org/2000/svg">
<path fill-rule="evenodd" clip-rule="evenodd" d="M14.2659 0.927053C14.951 1.1084 15.4906 1.63987 15.6745 2.31343C16.0159 3.54281 15.9999 6.10597 15.9999 6.10597C15.9999 6.10597 15.9975 8.65499 15.6665 9.88358C15.4803 10.5564 14.9382 11.087 14.2539 11.2676C13.002 11.5895 7.99355 11.584 7.99355 11.584C7.99355 11.584 2.99868 11.5785 1.73398 11.2409C1.04806 11.0596 0.508443 10.5281 0.324573 9.85532C-0.0031954 8.63851 1.17004e-06 6.07613 1.17004e-06 6.07613C1.17004e-06 6.07613 0.00320009 3.52632 0.333367 2.29695C0.518835 1.62417 1.07364 1.08092 1.74517 0.901147C2.99788 0.578495 8.00554 0.58399 8.00554 0.58399C8.00554 0.58399 13.014 0.589486 14.2659 0.927053ZM6.40747 3.72808L6.40347 8.43832L10.5701 6.08712L6.40747 3.72808Z" fill="white"/>
</svg>
